<svg width="147" height="52" viewBox="0 0 147 52" fill="none" xmlns="http://www.w3.org/2000/svg">
<path d="M114.052 29.6109C114.052 30.4219 113.501 31.0354 112.586 31.0354C111.921 31.0354 111.308 30.8687 110.819 30.5366C110.819 30.5366 110.383 31.8677 110.819 32.0437C111.255 32.2198 111.973 32.3665 112.586 32.3665C114.28 32.3665 115.464 31.2021 115.464 29.6123V24.976H114.052V25.995C113.668 25.3401 113.044 24.9347 112.306 24.9347C111.079 24.9347 110.165 26.0577 110.165 27.5849C110.165 29.1121 111.08 30.2351 112.306 30.2351C113.044 30.2351 113.668 29.8297 114.052 29.1641V29.6109ZM54.9012 42.0725H56.315V39.2555C56.6898 39.9211 57.3234 40.3266 58.061 40.3266C59.2867 40.3266 60.2017 39.2035 60.2017 37.6763C60.2017 36.1491 59.2867 35.0261 58.061 35.0261C57.322 35.0261 56.6885 35.4316 56.315 36.0865V35.0781H54.9012V42.0725ZM86.6 42.1512H88.0138V39.3342C88.3886 39.9998 89.0221 40.4052 89.7597 40.4052C90.9855 40.4052 91.9018 39.2822 91.9018 37.755C91.9018 36.2278 90.9868 35.1048 89.7597 35.1048C89.0221 35.1048 88.3886 35.5103 88.0138 36.1651V35.1568H86.6V42.1525V42.1512ZM85.4689 30.1818H87.2775L88.2752 25.5149V30.1818H89.689V24.9854H87.2562L86.3732 29.3402L85.4903 24.9854H83.0468V30.1818H84.4606V25.4629L85.4689 30.1818ZM50.0262 37.4469C50.0262 37.3322 50.0369 37.2282 50.0582 37.1348V36.7707C50.0582 36.5106 50.0262 36.2825 49.9649 36.0744C49.8502 36.3239 49.7675 36.5946 49.7155 36.9067L50.0596 36.772L48.6458 37.3429V40.2745H50.0596V37.1348C50.1529 36.636 50.4957 36.3559 50.9732 36.3559C51.5241 36.3559 51.7428 36.7187 51.7428 37.3429V40.2745H53.1566V36.772C53.1566 35.7223 52.6058 35.0261 51.5761 35.0261C50.8478 35.0261 50.277 35.4209 49.9649 36.0758C49.7675 35.4209 49.2686 35.0261 48.5097 35.0261C47.8335 35.0261 47.304 35.3795 46.9812 35.9717V35.0781H45.5674V40.2745H46.9812V37.0414C47.0959 36.6053 47.428 36.3559 47.8748 36.3559C48.4257 36.3559 48.6444 36.7187 48.6444 37.3429L49.7141 36.9067C49.6941 37.0735 49.6835 37.2602 49.6835 37.4469H50.0262ZM25.4966 29.895V30.1138H27.0038L27.3666 28.8147H29.9754L30.3502 30.1138H31.8574V29.895L30.0288 23.7423H27.3265L25.4966 29.895ZM98.388 35.1568H96.9742V36.1651C96.59 35.5103 95.9658 35.1048 95.2282 35.1048C94.0025 35.1048 93.0875 36.2278 93.0875 37.755C93.0875 39.2822 94.0025 40.4052 95.2282 40.4052C95.9671 40.4052 96.59 39.9998 96.9742 39.3342V40.3532H98.388V35.1568ZM61.0967 24.916H59.6828V25.935C59.2987 25.2695 58.6745 24.864 57.9369 24.864C56.7098 24.864 55.7949 25.987 55.7949 27.5142C55.7949 29.0414 56.7098 30.1658 57.9369 30.1658C58.6745 30.1658 59.2987 29.7603 59.6828 29.1054V30.1138H61.0967V24.9173V24.916ZM119.935 29.9737V30.1925H121.338L123.023 27.5316V30.1818H124.437V27.5316L126.12 30.1925H127.523V29.9737L125.871 27.5316L127.46 25.2028V24.984H126.057L124.437 27.5302V24.984H123.023V27.5302L121.401 24.984H119.998V25.2028L121.588 27.5316L119.935 29.9737ZM38.6864 27.5142C38.6864 29.0427 39.8401 30.1658 41.3686 30.1658C42.8971 30.1658 44.0509 29.0427 44.0509 27.5142C44.0509 25.9857 42.8971 24.864 41.3686 24.864C39.8401 24.864 38.6864 25.987 38.6864 27.5142ZM90.9561 27.5729C90.9561 29.1014 92.1098 30.2231 93.6384 30.2231C95.1669 30.2231 96.3206 29.1001 96.3206 27.5729C96.3206 26.0457 95.1669 24.9227 93.6384 24.9227C92.1098 24.9227 90.9561 26.0457 90.9561 27.5729ZM103.627 27.5729C103.627 29.1014 104.781 30.2231 106.308 30.2231C107.835 30.2231 108.99 29.1001 108.99 27.5729C108.99 26.0457 107.836 24.9227 106.308 24.9227C104.779 24.9227 103.627 26.0457 103.627 27.5729ZM69.5782 38.7674C69.5782 38.0818 69.038 37.5616 68.2377 37.3536C68.9553 37.1775 69.4328 36.7814 69.4328 36.2732C69.4328 35.5769 68.5392 35.0781 67.3641 35.0781H64.994V40.2745H67.5095C68.6846 40.2745 69.5782 39.641 69.5782 38.7674ZM46.8145 24.916H45.4007V28.1904C45.4007 29.3242 46.0249 30.1658 47.1359 30.1658C47.8842 30.1658 48.5191 29.7403 48.8925 29.0641C49.0072 29.7403 49.3087 30.1551 49.7555 30.1551C50.2023 30.1551 50.5771 29.7803 50.7531 29.2921V31.1421H51.9589V28.4078H50.7531V28.8853H50.6491C50.3477 28.8853 50.2957 28.5946 50.285 28.0544V24.9147H48.8712V27.929C48.7151 28.4799 48.2683 28.8333 47.6761 28.8333C46.9799 28.8333 46.8131 28.3652 46.8131 27.6169V24.9147L46.8145 24.916ZM64.2564 24.916H62.8426V28.1904C62.8426 29.3242 63.4668 30.1658 64.5778 30.1658C65.3261 30.1658 65.961 29.7403 66.3344 29.0641C66.4491 29.7403 66.7506 30.1551 67.1974 30.1551C67.6442 30.1551 68.019 29.7803 68.1951 29.2921V31.1421H69.4008V28.4078H68.1951V28.8853H68.091C67.7269 28.8853 67.7269 28.4599 67.7269 27.6689V24.9147H66.3131V27.929C66.157 28.4799 65.7102 28.8333 65.118 28.8333C64.4218 28.8333 64.2551 28.3652 64.2551 27.6169V24.9147L64.2564 24.916ZM27.0971 35.0354H25.6833V40.2745H30.2769V41.3656H31.4826V39.0581H30.4116V35.0354H28.9978V39.0581H27.0638L27.0945 39.0475V35.0354H27.0971ZM77.8303 24.916H75.3148V24.9053C74.1397 24.9053 73.2461 25.6229 73.2461 26.5992C73.2461 27.5756 74.0771 28.2411 75.1894 28.2825C74.4825 28.3558 73.921 28.6146 73.6729 28.968L73.0287 29.8937V30.1124H74.5465L75.4095 28.5119H76.4179V30.1124H77.8317V24.916H77.8303ZM32.3149 37.6243C32.3149 39.1528 33.4379 40.2745 35.2346 40.2745C35.8588 40.2745 36.5857 40.0971 37.0432 39.8904V38.4659C36.5337 38.778 36.0041 38.9434 35.3279 38.9434C34.5383 38.9434 33.9354 38.59 33.758 37.9978H37.2926C37.646 36.3452 36.7311 34.9727 34.9958 34.9727C33.4686 34.9727 32.3149 36.0958 32.3149 37.623V37.6243ZM74.928 38.4726H76.3098L76.2898 38.5353C76.1858 38.8887 75.9564 39.2008 75.4895 39.2008C75.1774 39.2008 74.7413 39.0448 74.4398 38.7847V40.2919C74.7933 40.4586 75.1361 40.5306 75.5936 40.5306C76.5499 40.5306 77.2875 39.8544 77.5782 38.9714L79.1374 34.2525V34.0351H77.6303L76.3832 38.2245L74.928 34.0351H73.3795V34.2525L74.928 38.4726ZM108.667 35.1461H107.254V37.0588H105.332V35.1461H103.918V40.3426H105.332V38.2739H107.254V40.3426H108.667V35.1461ZM43.6134 35.0781H42.1996V36.9908H40.2763V35.0781H38.8624V40.2745H40.2763V38.2058H42.1996V40.2745H43.6134V35.0781ZM133.541 24.9854H132.127V26.898H130.204V24.9854H128.79V30.1818H130.204V28.1131H132.127V30.1818H133.541V24.9854ZM111.775 35.1568H110.361V38.4312C110.361 39.5636 110.995 40.4066 112.107 40.4066C112.846 40.4066 113.469 40.0011 113.853 39.3356V40.3546H115.267V35.1581H113.853V38.1512C113.708 38.7127 113.25 39.0755 112.647 39.0755C111.951 39.0755 111.775 38.6073 111.775 37.8591V35.1568ZM136.68 24.996H135.266V28.2705C135.266 29.4029 135.899 30.2458 137.012 30.2458C137.749 30.2458 138.374 29.8403 138.758 29.1748V30.1938H140.171V24.9974H138.758V27.9904C138.612 28.5519 138.155 28.9147 137.552 28.9147C136.856 28.9147 136.678 28.4465 136.678 27.6983V24.996H136.68ZM97.1209 30.1511C97.2876 30.1925 97.453 30.2245 97.6504 30.2245C99.2202 30.2245 99.563 28.1971 99.6364 26.2018H100.779V30.1831H102.193V24.9867H98.3479C98.3479 27.0234 98.2226 28.812 97.4957 28.812C97.3916 28.812 97.2249 28.7813 97.1222 28.6973V30.1524L97.1209 30.1511ZM85.1555 35.3742V35.1555H83.6896L81.7356 37.7017V35.1555H80.3218V40.3519H81.7356V37.7017L83.7723 40.3626H85.2795V40.1452L83.2735 37.671L85.1555 35.3742ZM142.927 27.5102L141.628 29.9737V30.1925H143.052L144.226 27.8223L145.412 30.1925H146.836V29.9737L145.537 27.5102L146.732 25.2028V24.984H145.329L144.228 27.3635L143.136 24.984H141.733V25.2028L142.928 27.5102H142.927ZM37.1792 25.1868C36.7431 25.0094 36.1402 24.864 35.62 24.864C34.0915 24.864 32.9378 25.987 32.9378 27.5142C32.9378 29.0414 34.0395 30.1658 35.6507 30.1658C36.1709 30.1658 36.7937 30.0097 37.2512 29.8017V28.3358C36.7631 28.6586 36.3683 28.8347 35.7547 28.8347C34.9651 28.8347 34.3623 28.2945 34.3623 27.5142C34.3623 26.7339 34.8824 26.1938 35.62 26.1938C36.2229 26.1938 36.691 26.3605 37.1792 26.6926V25.1854V25.1868ZM101.828 35.1461H100.414V40.3426H101.828V35.1461ZM62.9986 35.0781H61.5848V40.2745H62.9986V35.0781ZM54.2357 24.916H52.8218V30.1124H54.2357V24.916ZM71.6669 24.916H70.2531V30.1124H71.6669V24.916ZM118.584 24.9854H117.17V30.1818H118.584V24.9854ZM42.6264 27.5142C42.6264 28.2945 42.1062 28.8347 41.3686 28.8347C40.631 28.8347 40.1109 28.2945 40.1109 27.5142C40.1109 26.7339 40.631 26.1938 41.3686 26.1938C42.1062 26.1938 42.6264 26.7339 42.6264 27.5142ZM94.8961 27.5729C94.8961 28.3518 94.3759 28.8933 93.6384 28.8933C92.9008 28.8933 92.3806 28.3532 92.3806 27.5729C92.3806 26.7926 92.9008 26.2524 93.6384 26.2524C94.3759 26.2524 94.8961 26.7926 94.8961 27.5729ZM107.567 27.5729C107.567 28.3518 107.047 28.8933 106.309 28.8933C105.572 28.8933 105.052 28.3532 105.052 27.5729C105.052 26.7926 105.572 26.2524 106.309 26.2524C107.047 26.2524 107.567 26.7926 107.567 27.5729ZM111.588 27.5836C111.588 26.8046 112.107 26.2631 112.846 26.2631C113.585 26.2631 114.104 26.8033 114.104 27.5836C114.104 28.3638 113.584 28.904 112.846 28.904C112.109 28.904 111.588 28.3638 111.588 27.5836ZM57.2193 27.5142C57.2193 26.7353 57.7382 26.1938 58.4771 26.1938C59.216 26.1938 59.7349 26.7339 59.7349 27.5142C59.7349 28.2945 59.2147 28.8347 58.4771 28.8347C57.7395 28.8347 57.2193 28.2945 57.2193 27.5142ZM90.4773 37.755C90.4773 38.5339 89.9571 39.0755 89.2195 39.0755C88.4819 39.0755 87.9618 38.5353 87.9618 37.755C87.9618 36.9747 88.4819 36.4346 89.2195 36.4346C89.9571 36.4346 90.4773 36.9747 90.4773 37.755ZM58.7785 37.6763C58.7785 38.4566 58.2584 38.9968 57.5208 38.9968C56.7832 38.9968 56.263 38.4566 56.263 37.6763C56.263 36.8961 56.7832 36.3572 57.5208 36.3572C58.2584 36.3572 58.7785 36.8974 58.7785 37.6763ZM94.5106 37.755C94.5106 36.9761 95.0308 36.4346 95.7684 36.4346C96.506 36.4346 97.0262 36.9747 97.0262 37.755C97.0262 38.5353 96.506 39.0755 95.7684 39.0755C95.0308 39.0755 94.5106 38.5353 94.5106 37.755ZM28.6777 24.2518L29.634 27.5982H27.7213L28.6777 24.2518ZM117.888 24.2158C117.358 24.2158 116.984 23.8836 116.984 23.3848C116.984 22.886 117.358 22.5539 117.888 22.5539C118.417 22.5539 118.792 22.8966 118.792 23.3848C118.792 23.873 118.417 24.2158 117.888 24.2158ZM62.3024 34.3085C61.7729 34.3085 61.3981 33.9764 61.3981 33.4776C61.3981 32.9787 62.3024 32.6453 62.3024 32.6453C62.3024 32.6453 63.2067 32.9881 63.2067 33.4776C63.2067 33.9671 62.8332 34.3085 62.3024 34.3085ZM53.5394 24.1477C53.0099 24.1477 52.6351 23.8156 52.6351 23.3168C52.6351 22.818 53.0099 22.4858 53.5394 22.4858C54.0689 22.4858 54.4437 22.8286 54.4437 23.3168C54.4437 23.805 54.0703 24.1477 53.5394 24.1477ZM70.9707 24.1477C70.4412 24.1477 70.0664 23.8156 70.0664 23.3168C70.0664 22.818 70.4412 22.4858 70.9707 22.4858C71.5002 22.4858 71.875 22.8286 71.875 23.3168C71.875 23.805 71.5002 24.1477 70.9707 24.1477ZM74.6599 26.8193C74.6599 26.4245 74.94 26.1324 75.3148 26.1324H76.4165V27.4942H75.3148C74.94 27.4942 74.6599 27.2141 74.6599 26.8193ZM100.934 33.5456C100.934 33.9724 100.643 34.2738 100.218 34.2738C99.7924 34.2738 99.4897 33.9724 99.4897 33.5456C99.4897 33.1188 99.7804 32.8173 100.218 32.8173C100.655 32.8173 100.934 33.1188 100.934 33.5456ZM102.743 33.5456C102.743 33.9724 102.463 34.2738 102.016 34.2738C101.6 34.2738 101.298 33.9724 101.298 33.5456C101.298 33.1188 101.6 32.8173 102.016 32.8173C102.463 32.8173 102.743 33.1188 102.743 33.5456ZM68.1644 38.55C68.1644 38.8407 67.915 39.0595 67.5095 39.0595H66.4078V38.0511H67.5095C67.915 38.0511 68.1644 38.2592 68.1644 38.55ZM68.019 36.792C68.019 37.0414 67.7909 37.2495 67.4161 37.2708H66.4078V36.2932H67.3641C67.7696 36.2932 68.019 36.5226 68.019 36.792ZM35.0585 36.2625C35.5987 36.2732 35.9214 36.5546 35.9214 37.0108H33.8007C34.0195 36.5226 34.5076 36.2625 35.0585 36.2625Z" fill="black"/>
<path d="M15.1238 15.4203H0L15.1238 0.297852V15.4203Z" fill="#E4195D"/>
<path d="M15.124 15.4204H30.2478L15.124 30.5442V15.4204Z" fill="#A52282"/>
<path d="M15.1234 15.4204H0.000976562V30.5429H15.1234V15.4204Z" fill="#F6A906"/>
<path d="M22.6853 7.85908L15.124 0.297852V7.85908V15.4203H30.2478V7.85908V0.297852L22.6853 7.85908Z" fill="#009CA2"/>
<path d="M25.7852 45.1392H26.7359V47.5054H26.7922L28.5951 45.1392H29.7641V45.1955L27.8134 47.6815L29.8909 50.1252V50.1815H28.6866L26.7922 47.935H26.7359V50.1815H25.7852V45.1392Z" fill="black"/>
<path d="M30.3618 46.5899H31.228V47.0265H31.2844C31.383 46.8716 31.5262 46.7425 31.714 46.6392C31.9018 46.5312 32.1177 46.4772 32.3619 46.4772C32.6858 46.4772 32.9792 46.5594 33.2422 46.7237C33.5098 46.8833 33.7187 47.1087 33.8689 47.3998C34.0192 47.6909 34.0943 48.0195 34.0943 48.3857C34.0943 48.7566 34.0192 49.0876 33.8689 49.3787C33.7187 49.6651 33.5098 49.8904 33.2422 50.0548C32.9792 50.2144 32.6858 50.2942 32.3619 50.2942C32.1177 50.2942 31.8994 50.2426 31.7069 50.1393C31.5191 50.036 31.3783 49.9069 31.2844 49.7519H31.228L31.2844 50.259V51.7027H30.3618V46.5899ZM32.1999 49.4421C32.3736 49.4421 32.5356 49.3975 32.6858 49.3083C32.8361 49.2191 32.9558 49.0947 33.045 48.935C33.1342 48.7754 33.1788 48.5923 33.1788 48.3857C33.1788 48.1791 33.1342 47.996 33.045 47.8364C32.9558 47.6768 32.8361 47.5547 32.6858 47.4702C32.5356 47.381 32.3736 47.3364 32.1999 47.3364C32.0309 47.3364 31.8712 47.381 31.721 47.4702C31.5708 47.5547 31.4511 47.6768 31.3618 47.8364C31.2726 47.996 31.228 48.1791 31.228 48.3857C31.228 48.5923 31.2726 48.7754 31.3618 48.935C31.4511 49.0947 31.5708 49.2191 31.721 49.3083C31.8712 49.3975 32.0309 49.4421 32.1999 49.4421Z" fill="black"/>
<path d="M36.5236 50.2942C36.1527 50.2942 35.8217 50.212 35.5306 50.0477C35.2395 49.8787 35.0118 49.651 34.8475 49.3646C34.6879 49.0735 34.6081 48.7472 34.6081 48.3857C34.6081 48.0289 34.6879 47.705 34.8475 47.4139C35.0118 47.1228 35.2395 46.8951 35.5306 46.7308C35.8217 46.5617 36.1527 46.4772 36.5236 46.4772C36.8898 46.4772 37.2184 46.5617 37.5095 46.7308C37.8006 46.8951 38.026 47.1228 38.1856 47.4139C38.3499 47.705 38.4321 48.0289 38.4321 48.3857C38.4321 48.7472 38.3499 49.0735 38.1856 49.3646C38.026 49.651 37.8006 49.8787 37.5095 50.0477C37.2184 50.212 36.8898 50.2942 36.5236 50.2942ZM36.5236 49.4421C36.702 49.4421 36.8663 49.3998 37.0166 49.3153C37.1668 49.2308 37.2865 49.1087 37.3757 48.9491C37.4649 48.7895 37.5095 48.6017 37.5095 48.3857C37.5095 48.1744 37.4649 47.989 37.3757 47.8294C37.2865 47.6697 37.1668 47.5477 37.0166 47.4632C36.8663 47.3787 36.702 47.3364 36.5236 47.3364C36.3452 47.3364 36.1809 47.3787 36.0306 47.4632C35.8804 47.5477 35.7583 47.6697 35.6644 47.8294C35.5752 47.989 35.5306 48.1744 35.5306 48.3857C35.5306 48.597 35.5752 48.7848 35.6644 48.9491C35.7583 49.1087 35.8804 49.2308 36.0306 49.3153C36.1809 49.3998 36.3452 49.4421 36.5236 49.4421Z" fill="black"/>
<path d="M39.0692 46.5899H42.4002V50.1815H41.4777V47.4491H39.9917V50.1815H39.0692V46.5899Z" fill="black"/>
<path d="M43.2988 46.5899H44.2213V48.1322L44.165 48.8083H44.2213L45.7072 46.5899H46.6228V50.1815H45.7072V48.6463L45.7636 47.9702H45.7072L44.2213 50.1815H43.2988V46.5899Z" fill="black"/>
<path d="M47.5283 46.5899H49.3875C49.5988 46.5899 49.7913 46.6322 49.965 46.7167C50.1387 46.7965 50.2725 46.9068 50.3664 47.0477C50.465 47.1838 50.5143 47.3341 50.5143 47.4984C50.5143 47.6862 50.4744 47.8505 50.3946 47.9913C50.3148 48.1275 50.2068 48.2284 50.0706 48.2942V48.3505C50.2443 48.4303 50.3828 48.543 50.4861 48.6885C50.5894 48.8341 50.641 48.9961 50.641 49.1745C50.641 49.381 50.5847 49.5618 50.472 49.7167C50.364 49.867 50.2209 49.982 50.0424 50.0618C49.8687 50.1416 49.6833 50.1815 49.4861 50.1815H47.5283V46.5899ZM49.2396 48.0054C49.3476 48.0054 49.4368 47.9726 49.5072 47.9068C49.5823 47.8364 49.6199 47.7496 49.6199 47.6463C49.6199 47.5383 49.5847 47.4514 49.5143 47.3857C49.4438 47.32 49.3523 47.2871 49.2396 47.2871H48.4016V48.0054H49.2396ZM49.3805 49.4562C49.5025 49.4562 49.6011 49.4186 49.6762 49.3435C49.7561 49.2684 49.796 49.1721 49.796 49.0547C49.796 48.9421 49.7561 48.8482 49.6762 48.773C49.6011 48.6932 49.5025 48.6533 49.3805 48.6533H48.4016V49.4562H49.3805Z" fill="black"/>
<path d="M51.3108 46.5899H52.2334V47.928H53.7968V46.5899H54.7123V50.1815H53.7968V48.7871H52.2334V50.1815H51.3108V46.5899Z" fill="black"/>
<path d="M55.6229 46.5899H56.5455V48.1322L56.4891 48.8083H56.5455L58.0314 46.5899H58.9469V50.1815H58.0314V48.6463L58.0878 47.9702H58.0314L56.5455 50.1815H55.6229V46.5899Z" fill="black"/>
<path d="M62.8596 50.1815H59.8525V46.5899H60.775V49.3576H62.261V46.5899H63.1835V49.3576H63.6906V51.252H62.8596V50.1815Z" fill="black"/>
<path d="M64.3709 46.5899H65.2442V47.7871H66.1526C66.5517 47.7871 66.8733 47.8951 67.1174 48.1111C67.3616 48.3223 67.4836 48.6134 67.4836 48.9843C67.4836 49.3552 67.3616 49.6487 67.1174 49.8646C66.8733 50.0759 66.5517 50.1815 66.1526 50.1815H64.3709V46.5899ZM66.1174 49.4562C66.277 49.4562 66.4038 49.4163 66.4977 49.3364C66.5916 49.2519 66.6385 49.1346 66.6385 48.9843C66.6385 48.8341 66.5916 48.7191 66.4977 48.6392C66.4038 48.5547 66.277 48.5125 66.1174 48.5125H65.2442V49.4562H66.1174Z" fill="black"/>
<path d="M68.1328 46.5899H69.0554V48.1392H69.1117L70.2878 46.5899H71.3793V46.6462L70.0835 48.2942L71.4498 50.1252V50.1815H70.3652L69.1117 48.4632H69.0554V50.1815H68.1328V46.5899Z" fill="black"/>
<path d="M72.9658 50.2942C72.5855 50.2942 72.2733 50.1839 72.0292 49.9632C71.785 49.7379 71.663 49.4444 71.663 49.0829C71.663 48.8435 71.7263 48.6322 71.8531 48.4491C71.9799 48.266 72.1536 48.1251 72.3742 48.0266C72.5949 47.928 72.839 47.8787 73.1067 47.8787C73.4776 47.8787 73.7945 47.9327 74.0574 48.0406V47.8857C74.0574 47.6885 73.9823 47.5289 73.832 47.4068C73.6865 47.2848 73.4893 47.2237 73.2405 47.2237C73.0714 47.2237 72.9071 47.2636 72.7475 47.3434C72.5926 47.4186 72.4634 47.5195 72.3602 47.6463L71.7686 47.1815C71.9423 46.9561 72.1606 46.7824 72.4235 46.6603C72.6865 46.5383 72.9728 46.4772 73.2827 46.4772C73.832 46.4772 74.2499 46.604 74.5363 46.8575C74.8226 47.111 74.9658 47.4819 74.9658 47.9702V50.1815H74.0574V49.8153H74.001C73.8931 49.9562 73.7499 50.0712 73.5714 50.1604C73.3977 50.2496 73.1959 50.2942 72.9658 50.2942ZM73.1841 49.5759C73.4517 49.5759 73.663 49.4914 73.8179 49.3224C73.9776 49.1486 74.0574 48.9468 74.0574 48.7167C73.8179 48.604 73.5668 48.5477 73.3038 48.5477C72.825 48.5477 72.5855 48.7261 72.5855 49.0829C72.5855 49.2285 72.6372 49.3482 72.7404 49.4421C72.8437 49.5313 72.9916 49.5759 73.1841 49.5759Z" fill="black"/>
<path d="M82.2964 48.3857C82.2964 48.7284 82.2096 49.0336 82.0359 49.3012C81.8668 49.5688 81.6297 49.7848 81.3246 49.9491C81.0194 50.1135 80.6696 50.2191 80.2753 50.266V51.7027H79.3527V50.266C78.7471 50.1956 78.2588 49.9937 77.8879 49.6604C77.5217 49.3271 77.3386 48.9022 77.3386 48.3857C77.3386 47.8693 77.5217 47.4444 77.8879 47.111C78.2588 46.7777 78.7471 46.5758 79.3527 46.5054V45.1392H80.2753V46.5054C80.6696 46.5523 81.0194 46.658 81.3246 46.8223C81.6297 46.9866 81.8668 47.2026 82.0359 47.4702C82.2096 47.7378 82.2964 48.043 82.2964 48.3857ZM80.2753 49.4562C80.6274 49.3998 80.902 49.2778 81.0992 49.09C81.3011 48.9022 81.402 48.6674 81.402 48.3857C81.402 48.104 81.3011 47.8693 81.0992 47.6815C80.902 47.4937 80.6274 47.3716 80.2753 47.3153V49.4562ZM78.233 48.3857C78.233 48.6627 78.3316 48.8951 78.5287 49.0829C78.7306 49.2707 79.0053 49.3951 79.3527 49.4562V47.3153C79.0053 47.3763 78.7306 47.5007 78.5287 47.6885C78.3316 47.8763 78.233 48.1087 78.233 48.3857Z" fill="black"/>
<path d="M83.5227 46.1955C83.3584 46.1955 83.2176 46.1368 83.1002 46.0195C82.9828 45.9021 82.9241 45.7613 82.9241 45.5969C82.9241 45.4326 82.9828 45.2941 83.1002 45.1814C83.2176 45.0641 83.3584 45.0054 83.5227 45.0054C83.6871 45.0054 83.8256 45.0641 83.9382 45.1814C84.0556 45.2941 84.1143 45.4326 84.1143 45.5969C84.1143 45.7613 84.0556 45.9021 83.9382 46.0195C83.8256 46.1368 83.6871 46.1955 83.5227 46.1955ZM83.0579 46.5899H83.9805V50.1815H83.0579V46.5899Z" fill="black"/>
<path d="M85.196 50.2379C85.0176 50.2379 84.8768 50.2191 84.7735 50.1815V49.3717C84.8486 49.3951 84.9284 49.4069 85.0129 49.4069C85.1538 49.4069 85.2523 49.3317 85.3087 49.1815C85.3697 49.0266 85.4002 48.7496 85.4002 48.3505V46.5899H88.5904V50.1815H87.7101V47.4209H86.2735V48.5829C86.2735 49.1792 86.1772 49.6041 85.9848 49.8576C85.797 50.1111 85.534 50.2379 85.196 50.2379Z" fill="black"/>
<path d="M90.0149 46.1955C89.8506 46.1955 89.7098 46.1368 89.5924 46.0195C89.475 45.9021 89.4163 45.7613 89.4163 45.5969C89.4163 45.4326 89.475 45.2941 89.5924 45.1814C89.7098 45.0641 89.8506 45.0054 90.0149 45.0054C90.1793 45.0054 90.3178 45.0641 90.4304 45.1814C90.5478 45.2941 90.6065 45.4326 90.6065 45.5969C90.6065 45.7613 90.5478 45.9021 90.4304 46.0195C90.3178 46.1368 90.1793 46.1955 90.0149 46.1955ZM89.5501 46.5899H90.4727V50.1815H89.5501V46.5899Z" fill="black"/>
<path d="M91.0175 50.1252L91.926 48.9139L91.9119 48.8646C91.6913 48.7801 91.5129 48.6392 91.3767 48.4421C91.2405 48.2402 91.1725 48.0172 91.1725 47.773C91.1725 47.5477 91.2288 47.3458 91.3415 47.1674C91.4589 46.9843 91.6161 46.8434 91.8133 46.7448C92.0105 46.6416 92.2288 46.5899 92.4683 46.5899H94.2711V50.1815H93.3908V48.9773H92.8697L91.9964 50.1815H91.0175V50.1252ZM93.3908 48.266V47.3153H92.5598C92.4096 47.3153 92.2875 47.3599 92.1936 47.4491C92.0997 47.5336 92.0528 47.6463 92.0528 47.7871C92.0528 47.9327 92.0997 48.05 92.1936 48.1392C92.2875 48.2237 92.4096 48.266 92.5598 48.266H93.3908Z" fill="black"/>
</svg>
