<svg width="1221" height="558" viewBox="0 0 1221 558" fill="none" xmlns="http://www.w3.org/2000/svg">
<path d="M1131.18 15V327.728H1205.17V402.93H1131.18V511.748H1045.93V402.93H819.922V344.942L822.381 341.195L1031.98 21.7705L1036.43 15H1131.18ZM921.856 327.728H1045.93V132.879L921.856 327.728Z" fill="black" stroke="#F9F7F4" stroke-width="30"/>
<path d="M326.254 15V327.728H400.251V402.93H326.254V511.748H241.008V402.93H15V344.942L17.459 341.195L227.061 21.7705L231.503 15H326.254ZM116.934 327.728H241.008V132.879L116.934 327.728Z" fill="black" stroke="#F9F7F4" stroke-width="30"/>
<path d="M611.258 15.335C673.473 15.335 721.655 41.804 753.912 94.0703L755.37 96.4414C785.757 146.381 800.703 204.436 800.703 270.07C800.703 335.533 784.882 393.454 752.775 443.267C719.752 494.501 672.671 520.788 612.933 520.788C555.038 520.788 508.47 495.357 474.364 446.013L474.354 445.998L474.344 445.984C440.806 397.223 424.493 337.392 424.493 267.392C424.493 198.595 439.982 139.451 471.804 90.7676L472.573 89.5996C505.222 40.3716 551.976 15.335 611.258 15.335ZM610.589 89.8672C593.878 89.8672 580.024 93.6747 568.48 100.782C556.92 107.9 546.824 118.853 538.469 134.445L537.678 135.96C521.196 167.947 512.417 210.881 512.417 265.718C512.417 323.629 522.027 368.25 539.987 400.721L540.798 402.156C557.942 432.052 581.679 445.922 613.267 445.922C630.254 445.922 644.262 442.118 655.853 435.055C667.461 427.981 677.512 417.108 685.741 401.643C702.796 369.364 711.774 327.992 711.774 276.768C711.774 221.372 702.812 176.266 685.688 140.785L684.866 139.103C676.298 121.765 665.858 109.641 653.92 101.804C642.053 94.0126 627.81 89.8673 610.589 89.8672Z" fill="black" stroke="#F9F7F4" stroke-width="30"/>
<path d="M589.726 215.115V65.1419C589.726 56.234 600.113 51.3925 606.959 57.0908L664.5 104.979C668.376 108.205 673.998 108.223 677.895 105.021L736.503 56.8662C743.361 51.2308 753.685 56.0654 753.685 64.9423V233.508C753.685 238.741 748.395 243.744 744.158 246.912C741.088 249.208 738.971 252.706 738.971 256.54V324.684V351.354C738.971 357.159 734.265 361.864 728.461 361.864H687.641C679.962 361.864 674.875 369.831 678.106 376.797L704.168 432.984C707.399 439.95 702.312 447.916 694.633 447.916H627.809C622.145 447.916 617.553 452.508 617.553 458.172C617.553 460.704 618.482 463.133 620.089 465.09C626.101 472.408 640.785 491.817 641.727 507.825C642.531 521.489 642.02 530.986 633.869 541.983C622.467 557.365 594.66 557.748 575.512 557.748C551.314 557.748 514.553 539.616 495.109 514.131C465.358 475.135 467.257 432.677 490.405 409.029C493.243 406.129 497.776 403.73 501.751 402.011C506.355 400.02 509.559 395.445 509.329 390.434C508.257 367.013 507.598 301.766 530.869 269.768C542.785 253.383 563.653 243.922 579.493 238.801C587.848 236.1 589.726 223.897 589.726 215.115Z" fill="white"/>
<path d="M624.335 336.508H713.672V247.915L669.379 292.211L669.008 292.583L668.635 292.211L624.335 247.915V336.508Z" fill="#009CA2" stroke="#F9F7F4" stroke-width="1.05102"/>
<path d="M714.291 245.81C719.674 237.767 722.907 232.217 724.812 225.762C726.762 219.158 727.335 211.57 727.335 199.35L727.335 152.58L610.672 152.58L610.672 199.35L610.681 201.543C610.769 212.235 611.532 218.839 613.434 224.843C615.423 231.12 618.661 236.768 623.752 245.773L668.619 198.987L668.998 198.591L669.378 198.986L714.291 245.81Z" fill="#009CA2" stroke="#F9F7F4" stroke-width="1.05102"/>
<path d="M610.146 152.054H669.003L610.146 90.0439V152.054Z" fill="#A52282" stroke="#F9F7F4" stroke-width="1.05102"/>
<path d="M623.809 427.422H669.003L623.809 337.034V427.422Z" fill="#F6A906" stroke="#F9F7F4" stroke-width="1.05102"/>
<path d="M540.674 411.656C537.253 411.656 533.962 413.915 530.701 415.738C523.219 419.921 514.528 426.654 511.226 441.488C508.055 455.736 514.121 472.269 519.27 481.409C529.482 499.534 543.264 512.282 556.516 519.839C569.44 527.207 584.667 529.789 597.928 524.392C602.114 522.688 607.092 520.222 610.118 513.99C613.133 507.779 612.889 497.562 610.2 491.066C605.013 478.532 592.214 477.504 584.672 480.271C583.032 480.872 581.472 482.272 581.101 485.688C580.583 490.458 584.52 493.132 586.108 495.03" stroke="black" stroke-width="8.40816" stroke-linecap="round"/>
<path d="M727.86 152.054H669.003L727.86 90.0439V152.054Z" fill="#E4195D" stroke="#F9F7F4" stroke-width="1.05102"/>
<path d="M669.054 337.033L714.248 337.033L669.054 228.778L669.054 337.033Z" fill="#A52282" stroke="#F9F7F4" stroke-width="1.05102"/>
<path d="M623.284 247.174C574.071 247.456 534.233 287.296 533.951 336.508H623.284V247.174Z" fill="#F6A906" stroke="#F9F7F4" stroke-width="1.05102"/>
<path d="M533.947 426.896H622.54L533.947 338.304V426.896Z" fill="#009CA2" stroke="#F9F7F4" stroke-width="1.05102"/>
<path d="M662.33 209.335L669.237 216.242L676.143 209.335H662.33Z" fill="#E4195D" stroke="#F9F7F4" stroke-width="1.05102"/>
<circle cx="12.6122" cy="12.6122" r="12.0867" transform="matrix(-1 0 0 1 715.248 185.687)" fill="white" stroke="#F9F7F4" stroke-width="1.05102"/>
<circle cx="7.88265" cy="7.88265" r="7.35714" transform="matrix(-1 0 0 1 706.84 189.891)" fill="black" stroke="#F9F7F4" stroke-width="1.05102"/>
<circle cx="12.6122" cy="12.6122" r="12.0867" transform="matrix(-1 0 0 1 647.983 185.687)" fill="white" stroke="#F9F7F4" stroke-width="1.05102"/>
<circle cx="7.88265" cy="7.88265" r="7.35714" transform="matrix(-1 0 0 1 646.932 189.891)" fill="black" stroke="#F9F7F4" stroke-width="1.05102"/>
</svg>
